<?xml version="1.0" standalone="no"?>
<!DOCTYPE svg PUBLIC "-//W3C//DTD SVG 20010904//EN"
 "http://www.w3.org/TR/2001/REC-SVG-20010904/DTD/svg10.dtd">
<svg version="1.0" xmlns="http://www.w3.org/2000/svg"
 width="633.000000pt" height="633.000000pt" viewBox="0 0 633.000000 633.000000"
 preserveAspectRatio="xMidYMid meet">
<metadata>
Created by potrace 1.11, written by Peter Selinger 2001-2013
</metadata>
<g transform="translate(0.000000,633.000000) scale(0.100000,-0.100000)"
fill="#000000" stroke="none">
<path d="M1350 3170 l0 -1830 1830 0 1830 0 0 1830 0 1830 -1830 0 -1830 0 0
-1830z m1748 548 l-3 -363 -92 -3 -93 -3 0 -179 0 -180 -90 0 -90 0 0 90 0 90
-90 0 -90 0 0 90 0 90 -180 0 -180 0 0 365 0 365 455 0 455 0 -2 -362z m1082
-633 l0 -815 -995 0 -995 0 0 365 0 365 90 0 90 0 0 -275 0 -275 815 0 815 0
0 635 0 635 -365 0 -365 0 1 90 2 90 453 0 454 0 0 -815z"/>
<path d="M2380 3720 l0 -180 265 0 265 0 0 180 0 180 -265 0 -265 0 0 -180z"/>
</g>
</svg>
